<svg xmlns="http://www.w3.org/2000/svg" version="1.1" width="394" height="120" viewBox="0 0 394 120">
    <path fill="#181922" d="M85.55 0h.12c14.02 35.5 27.56 71.2 41.5 106.73 1.75 4.68 5.19 8.83 10.18 10.16.01.78.04 2.33.05 3.11H85.97c.03-1.12.06-2.24.08-3.36 3.44-.45 7.25-.28 10.22-2.34 2.68-2.35 1.36-6.3.49-9.2-8.25-23.13-16.8-46.15-25.31-69.19C76.12 23.93 80.97 12.02 85.55 0zm125.71 24.35c2.22-.74 4.89 1.15 4.47 3.56-.2 2.94-4.53 3.9-6.17 1.58-1.41-1.71-.45-4.61 1.7-5.14zm29.17.25c2.26-1.3 5.51.62 5.1 3.31-.26 2.86-4.34 3.87-6.07 1.74-1.4-1.48-.88-4.2.97-5.05zm45.53-.27c1.7-.02 3.4-.05 5.11-.09.26 9.04.05 18.09.11 27.13h-5.24c0-9.01-.02-18.02.02-27.04zm73.45.23c2.26-1.24 5.57.75 4.96 3.43-.19 2.5-3.51 3.58-5.4 2.21-2.05-1.27-1.78-4.72.44-5.64zm8.55-.33c1.76.06 3.53.11 5.3.2-.16 8.98-.03 17.96-.08 26.94h-5.3c.04-9.04-.11-18.09.08-27.14zm-183.39 1.84c5.68.3 12.11-1.2 17.07 2.36 4.46 3.28 5.15 9.52 4.03 14.58-.75 3.84-3.73 7.25-7.66 7.96-4.44.77-8.97.29-13.44.4-.01-8.44-.01-16.87 0-25.3m5.52 4.28c-.06 5.56-.02 11.13-.03 16.69 2.99-.17 6.74.5 8.84-2.19 2.15-3.27 2.18-7.84.45-11.29-1.85-3.24-6.02-3.13-9.26-3.21zm115.73-2.63c5.18-3.77 14.12-2.12 15.88 4.63-1.6.42-3.21.84-4.81 1.24-1.1-2.13-3.25-3.83-5.76-3.17-2.02.06-3.69 2.85-1.81 4.27 3.19 2.04 7.41 2.06 10.26 4.71 3.15 2.91 2.63 8.92-1.35 10.85-5.29 2.57-11.84 1.39-16.47-2.07 1.03-1.33 2.09-2.65 3.14-3.97 2.79 1.98 6.37 3.87 9.85 2.5 1.72-.53 1.89-3.06.43-3.98-3.17-2.08-7.4-2.06-10.27-4.67-2.94-2.76-2.28-8.04.91-10.34zm-55.33.44c1.71-.06 3.42-.12 5.14-.18-.01 1.76 0 3.51 0 5.26 2.12 0 4.23.01 6.35.01 0 1.27-.04 2.55-.11 3.82-1.98.6-4.18.14-6.24.25.1 2.82-.37 5.74.38 8.49 1.2 2.11 3.9.87 5.75.65.3 1 .89 3.01 1.19 4.01-3.57 1.28-8.49 2.07-11.22-1.24-2.3-3.5-1.24-7.95-1.48-11.88-.69-.02-2.06-.05-2.74-.07l-.03-4c.76-.01 2.26-.04 3.01-.06v-5.06zm-18.24 5.89c.59-1.39 1.1-2.81 1.54-4.26 1.31.35 2.62.7 3.93 1.06-.41 2.09-1.53 3.85-3.49 4.78 1.01 2.58 1.62 5.81-.4 8.09-2.77 3.23-7.43 2.67-11.2 2.21.07.47.22 1.41.3 1.88 3.86.8 8.15-.49 11.74 1.47 3.12 1.67 3.05 6.7.04 8.44-3.52 2-7.85 1.85-11.73 1.33-2.3-.36-5.21-1.41-5.52-4.09-.27-1.85 1.31-2.87 2.45-3.99-1.89-2.12-1.92-5.23.67-6.78-1.66-2.56-2.18-6.15-.04-8.6 2.96-3.27 7.9-2.92 11.71-1.54m-7.03 3.35c-1.31.84-1.62 2.85-.59 4.02 1.52 1.91 5.49 1.25 5.72-1.42.4-2.68-3.19-3.99-5.13-2.6m-1.93 15.04c-1.09.39-1.4 1.14-.92 2.24 2.58 1.44 5.86 1.21 8.63.49 1.64-.22 1.38-2.68-.02-2.82-2.54-.36-5.17-.44-7.69.09zm-13.58-19.27c1.74-.01 3.48-.03 5.22-.06.02 6.09.01 12.18.01 18.26h-5.31c.03-6.07-.11-12.14.08-18.2zm29.73.07c1.75-.04 3.5-.09 5.25-.14-.07 6.13.15 12.26-.13 18.38-1.7-.05-3.4-.09-5.1-.13-.05-6.04-.02-12.07-.02-18.11zm27.4 1.48c3.37-2.29 8.24-2.31 11.69-.18 2.75 1.89 2.56 5.53 2.53 8.47.16 1.7-.62 4.2 1.7 4.62l.21 3.78c-2.51.29-5.37.41-6.88-2.05-2.58 2.41-6.65 2.97-9.75 1.23-2.63-1.58-2.86-5.89-.36-7.7 2.98-2 6.74-1.8 10.17-2.21.46-4.16-6.59-5.23-6.71-.88-1.53.28-3.07.55-4.6.81.05-2.1.04-4.59 2-5.89m3.62 12.69c2.7 1.02 5.97-.79 5.67-3.92-1.73.15-3.48.16-5.16.63-1.63.28-2.39 2.69-.51 3.29zm54.56-14.19c1.4-.04 2.8-.08 4.2-.11.13.74.39 2.22.51 2.97 2.84-3.95 9.7-4.22 11.8.59 2.4-4.85 10.48-4.86 12.22.47 1.03 4.66.28 9.5.5 14.23h-5.31c-.09-3.78.2-7.58-.14-11.36-.38-3.17-5.31-3.06-6.12-.18-.9 3.76-.25 7.71-.43 11.54h-5.31c-.09-3.8.2-7.61-.14-11.4-.43-3.13-5.3-3.01-6.08-.14-.88 3.76-.21 7.71-.41 11.54H325c.01-6.05-.03-12.1.02-18.15zm33.3.02c1.77-.05 3.54-.09 5.31-.14-.02 6.09.02 12.17-.02 18.26-1.74.02-3.48.05-5.21.08-.19-6.06-.06-12.13-.08-18.2zm24.08.27c4.97-1.89 11.18 1.09 11.6 6.7v3.27c-4.17.03-8.34-.01-12.5.09.96 1.42 1.68 3.36 3.58 3.74 2.41.85 4.65-.62 6.73-1.64.74.93 1.47 1.86 2.19 2.8v.32c-3.85 3.09-9.61 3.86-13.85 1.12-5.75-3.87-4.61-14.41 2.25-16.4m-.81 7.2c2.6.05 5.2.05 7.8.01-.55-1.61-1.32-3.64-3.35-3.67-2.36-.35-3.75 1.75-4.45 3.66zM260.63 60.69h5.31c-.01 9.03.02 18.06-.02 27.09-1.46.03-2.91.06-4.36.09-.1-.78-.3-2.33-.4-3.11-2.37 3.45-7.42 4.28-10.76 1.77-3.86-3.04-4.25-9.02-2.09-13.18 2.31-4.37 8.71-5.18 12.32-1.94-.03-3.57.01-7.15 0-10.72m-6.25 13.73c-3.22 2.14-2.56 8.73 1.73 9.08 2.94.36 5.01-2.73 4.52-5.41.1-3.06-3.62-5.36-6.25-3.67zm-63.27-12.05c1.9.04 3.81.06 5.72.06 3.06 8.42 5.98 16.88 8.97 25.32h-5.58c-.59-1.79-1.18-3.58-1.76-5.37-3.03-.01-6.05-.01-9.08 0-.58 1.79-1.17 3.57-1.74 5.36-1.88 0-3.76.01-5.63.02 3.04-8.46 5.87-17 9.1-25.39m2.77 5.73c-.94 3.39-2.03 6.73-3.12 10.08h6.35c-1.07-3.36-2.18-6.71-3.23-10.08zm17.46 2.41c3.4-1.65 8.16-1.63 10.88 1.29 1.32 1.37 1.35 3.39 1.72 5.14-1.55.2-3.1.35-4.64.52-.38-1.69-1.08-3.9-3.27-3.74-5.06.2-5.34 8.86-.55 9.78 2.33.61 4.46-.66 6.36-1.82.84 1.14 1.68 2.28 2.52 3.41-3.77 3.18-9.55 3.95-13.81 1.34-5.47-3.48-5.04-13 .79-15.92zm17.64.49c3.45-2.16 8.43-2.22 11.8.15 3.43 2.99 1.95 8.02 2.32 12 2.49.31 1.52 3.01 1.86 4.71-2.51.19-5.43.38-6.89-2.13-3.3 3.62-11.74 3.11-11.84-2.76.29-5.82 7.71-5.44 11.91-5.87.01-3.38-3.36-4.31-6.07-3.24l-.72 2.44c-1.5.23-3 .45-4.49.68-.01-2.15.06-4.71 2.12-5.98m2.5 12.02c2.29 2.47 7.19.41 6.6-3.16-2.21.43-7.09-.35-6.6 3.16zm38.11-1.5c-2.01-5.97 2.89-13.01 9.42-12.08 5.55-.2 8.46 5.57 7.82 10.45-4.18.08-8.36.01-12.53.1 1.29 4.66 7.01 4.82 10.19 2.05.8.98 1.59 1.96 2.4 2.94-4.95 4.84-15.45 3.97-17.3-3.46m4.69-4.45c2.64.07 5.29.07 7.93.01-.61-1.84-1.84-4.08-4.17-3.6-2.08 0-2.96 2.04-3.76 3.59zm15.84-7.41c1.41-.07 2.83-.13 4.25-.19.14.86.42 2.58.56 3.43 2.35-4.61 9.48-4.54 11.82.03 2.45-4.52 9.96-4.76 11.99.21 1.39 4.69.35 9.68.8 14.49-1.81.08-3.61.12-5.42.16-.1-3.91.28-7.85-.23-11.74-.86-3.16-5.87-2.34-6.24.74-.5 3.63-.09 7.33-.25 10.99-1.76-.02-3.52-.03-5.27-.03-.12-3.92.28-7.88-.26-11.77-.92-3.08-5.82-2.23-6.18.8-.56 3.65-.08 7.38-.35 11.06-1.74-.05-3.47-.08-5.21-.11-.02-6.02 0-12.05-.01-18.07zm31.04-.04c1.89 0 3.8.01 5.7.01 1.45 4.22 2.95 8.42 4.32 12.67 1.24-4.26 2.76-8.42 4.1-12.64 1.8-.02 3.59-.04 5.4-.04-2.36 6.36-4.78 12.7-7.13 19.06-.91 2.44-2.05 5.13-4.54 6.33-2.12 1.18-4.59.64-6.84.26.25-1.35.5-2.7.76-4.05 2.18.47 4.89.31 5.62-2.26-2.03-6.59-5.03-12.86-7.39-19.34zM35.59 98.63c1.48 1.31 3.51 2.42 3.9 4.52.76 3.22.31 7.05 2.82 9.59 3.25 3.28 8.17 3.39 12.47 3.91.02 1.12.04 2.23.07 3.35H20.94c-.01-.78-.02-2.35-.02-3.13 8.15-2.56 11.68-11.02 14.67-18.24z"/>
    <path fill="#f7d383" d="M149.03 15.37c3.12 0 6.24 0 9.36.01-4.15 22.18-18.11 42.22-37.46 53.82-1.08-2.93-2.16-5.87-3.23-8.81 15.86-10.1 27.36-26.64 31.33-45.02zM0 18.19c1.53-3.8 6.07-2.74 9.29-2.82 3.37 15.3 11.78 29.47 23.84 39.51C45.1 65.02 60.49 70.86 76.14 71.59c1.14 3.09 2.27 6.18 3.39 9.28-18.27.07-36.51-6.15-50.75-17.62C14.63 52 4.5 35.85.57 18.21c-.14.12-.43.37-.57.5v-.52z"/>
</svg>